<svg viewBox="0 0 1000 700" xmlns="http://www.w3.org/2000/svg">
  <!-- Title -->
  <text x="500" y="30" font-size="28" font-weight="bold" text-anchor="middle" fill="#333">
    HANGMAN 3D - Architecture Diagram
  </text>
  
  <!-- FRONTEND Layer -->
  <rect x="50" y="80" width="900" height="140" fill="#e3f2fd" stroke="#1976d2" stroke-width="2" rx="5"/>
  <text x="500" y="110" font-size="18" font-weight="bold" text-anchor="middle" fill="#1565c0">
    FRONTEND LAYER
  </text>
  <text x="500" y="135" font-size="12" text-anchor="middle" fill="#555">
    HTML5 + Three.js r128 + Web Audio API + CSS3
  </text>
  
  <!-- Frontend Components -->
  <rect x="80" y="150" width="140" height="60" fill="#fff9c4" stroke="#f57f17" stroke-width="1.5" rx="3"/>
  <text x="150" y="172" font-size="11" font-weight="bold" text-anchor="middle" fill="#333">3D Rendering</text>
  <text x="150" y="187" font-size="10" text-anchor="middle" fill="#666">(Three.js)</text>
  <text x="150" y="202" font-size="9" text-anchor="middle" fill="#888">Hangman visualization</text>
  
  <rect x="250" y="150" width="140" height="60" fill="#fff9c4" stroke="#f57f17" stroke-width="1.5" rx="3"/>
  <text x="320" y="172" font-size="11" font-weight="bold" text-anchor="middle" fill="#333">Game UI</text>
  <text x="320" y="187" font-size="10" text-anchor="middle" fill="#666">(HTML/CSS)</text>
  <text x="320" y="202" font-size="9" text-anchor="middle" fill="#888">Buttons, timer, display</text>
  
  <rect x="420" y="150" width="140" height="60" fill="#fff9c4" stroke="#f57f17" stroke-width="1.5" rx="3"/>
  <text x="490" y="172" font-size="11" font-weight="bold" text-anchor="middle" fill="#333">Audio System</text>
  <text x="490" y="187" font-size="10" text-anchor="middle" fill="#666">(Web Audio API)</text>
  <text x="490" y="202" font-size="9" text-anchor="middle" fill="#888">Music & effects</text>
  
  <rect x="590" y="150" width="140" height="60" fill="#fff9c4" stroke="#f57f17" stroke-width="1.5" rx="3"/>
  <text x="660" y="172" font-size="11" font-weight="bold" text-anchor="middle" fill="#333">Event Handlers</text>
  <text x="660" y="187" font-size="10" text-anchor="middle" fill="#666">(JavaScript)</text>
  <text x="660" y="202" font-size="9" text-anchor="middle" fill="#888">Click, keyboard, API</text>
  
  <rect x="760" y="150" width="140" height="60" fill="#fff9c4" stroke="#f57f17" stroke-width="1.5" rx="3"/>
  <text x="830" y="172" font-size="11" font-weight="bold" text-anchor="middle" fill="#333">State Management</text>
  <text x="830" y="187" font-size="10" text-anchor="middle" fill="#666">(Session)</text>
  <text x="830" y="202" font-size="9" text-anchor="middle" fill="#888">Game state tracking</text>
  
  <!-- Arrow down -->
  <path d="M 500 240 L 500 290" stroke="#666" stroke-width="2" fill="none" marker-end="url(#arrowhead)"/>
  <text x="520" y="270" font-size="11" fill="#666">HTTP POST/GET</text>
  
  <!-- BACKEND Layer -->
  <rect x="50" y="290" width="900" height="350" fill="#f3e5f5" stroke="#7b1fa2" stroke-width="2" rx="5"/>
  <text x="500" y="320" font-size="18" font-weight="bold" text-anchor="middle" fill="#6a1b9a">
    BACKEND LAYER (Flask)
  </text>
  
  <!-- Routes Layer -->
  <rect x="80" y="350" width="240" height="100" fill="#e1bee7" stroke="#6a1b9a" stroke-width="1.5" rx="3"/>
  <text x="200" y="375" font-size="12" font-weight="bold" text-anchor="middle" fill="#333">routes/game.py</text>
  <text x="200" y="395" font-size="9" text-anchor="middle" fill="#555">API Endpoints:</text>
  <text x="200" y="410" font-size="9" text-anchor="middle" fill="#666">• POST /start_game</text>
  <text x="200" y="425" font-size="9" text-anchor="middle" fill="#666">• POST /guess</text>
  <text x="200" y="440" font-size="9" text-anchor="middle" fill="#666">• POST /update_time</text>
  
  <!-- Models Layer -->
  <rect x="380" y="350" width="240" height="100" fill="#e1bee7" stroke="#6a1b9a" stroke-width="1.5" rx="3"/>
  <text x="500" y="375" font-size="12" font-weight="bold" text-anchor="middle" fill="#333">models/game.py</text>
  <text x="500" y="395" font-size="9" text-anchor="middle" fill="#555">GameState Class:</text>
  <text x="500" y="410" font-size="9" text-anchor="middle" fill="#666">• word, guessed_letters</text>
  <text x="500" y="425" font-size="9" text-anchor="middle" fill="#666">• guess_letter()</text>
  <text x="500" y="440" font-size="9" text-anchor="middle" fill="#666">• update_time()</text>
  
  <!-- Utils Layer -->
  <rect x="680" y="350" width="240" height="100" fill="#e1bee7" stroke="#6a1b9a" stroke-width="1.5" rx="3"/>
  <text x="800" y="375" font-size="12" font-weight="bold" text-anchor="middle" fill="#333">utils/words.py</text>
  <text x="800" y="395" font-size="9" text-anchor="middle" fill="#555">Word Database:</text>
  <text x="800" y="410" font-size="9" text-anchor="middle" fill="#666">• WORDS["usor"] (30)</text>
  <text x="800" y="425" font-size="9" text-anchor="middle" fill="#666">• WORDS["mediu"] (28)</text>
  <text x="800" y="440" font-size="9" text-anchor="middle" fill="#666">• WORDS["greu"] (21)</text>
  
  <!-- Config Layer -->
  <rect x="80" y="480" width="840" height="70" fill="#e1bee7" stroke="#6a1b9a" stroke-width="1.5" rx="3"/>
  <text x="500" y="505" font-size="12" font-weight="bold" text-anchor="middle" fill="#333">config.py & app.py</text>
  <text x="500" y="525" font-size="9" text-anchor="middle" fill="#666">• Flask Application Factory • Multi-environment config (dev/test/prod) • Error handlers</text>
  
  <!-- Arrows between components -->
  <path d="M 320 350 L 380 350" stroke="#999" stroke-width="1.5" fill="none" marker-end="url(#arrowhead2)"/>
  <path d="M 620 350 L 680 350" stroke="#999" stroke-width="1.5" fill="none" marker-end="url(#arrowhead2)"/>
  
  <!-- Data Flow Arrows -->
  <path d="M 200 450 L 200 480" stroke="#999" stroke-width="1.5" fill="none" marker-end="url(#arrowhead2)"/>
  <path d="M 500 450 L 500 480" stroke="#999" stroke-width="1.5" fill="none" marker-end="url(#arrowhead2)"/>
  <path d="M 800 450 L 800 480" stroke="#999" stroke-width="1.5" fill="none" marker-end="url(#arrowhead2)"/>
  
  <!-- Testing Layer -->
  <rect x="50" y="600" width="900" height="70" fill="#c8e6c9" stroke="#388e3c" stroke-width="2" rx="5"/>
  <text x="500" y="625" font-size="14" font-weight="bold" text-anchor="middle" fill="#2e7d32">
    TEST LAYER (pytest)
  </text>
  <rect x="80" y="640" width="200" height="25" fill="#81c784" stroke="#388e3c" stroke-width="1" rx="2"/>
  <text x="180" y="658" font-size="10" text-anchor="middle" fill="#fff">test_game.py (9 tests)</text>
  
  <rect x="350" y="640" width="300" height="25" fill="#81c784" stroke="#388e3c" stroke-width="1" rx="2"/>
  <text x="500" y="658" font-size="10" text-anchor="middle" fill="#fff">test_routes.py (5 integration tests)</text>
  
  <rect x="720" y="640" width="130" height="25" fill="#81c784" stroke="#388e3c" stroke-width="1" rx="2"/>
  <text x="785" y="658" font-size="10" text-anchor="middle" fill="#fff">Coverage >80%</text>
  
  <!-- Arrow markers -->
  <defs>
    <marker id="arrowhead" markerWidth="10" markerHeight="10" refX="9" refY="3" orient="auto">
      <polygon points="0 0, 10 3, 0 6" fill="#666"/>
    </marker>
    <marker id="arrowhead2" markerWidth="10" markerHeight="10" refX="9" refY="3" orient="auto">
      <polygon points="0 0, 10 3, 0 6" fill="#999"/>
    </marker>
  </defs>
  
  <!-- Legend -->
  <text x="50" y="680" font-size="10" fill="#888">Data flows top-to-bottom: Frontend → Routes → Models/Utils → Tests validate all layers</text>
</svg>